Coordinates
version=1
nRows=8
nColumns=46
inDegrees=yes

Units are S.I. units (second, meters, Newtons, ...)
Angles are in degrees.

endheader
time	pelvis_tilt	pelvis_list	pelvis_rotation	pelvis_tx	pelvis_ty	pelvis_tz	bb_angle	bb_tx	bb_ty	bb_tz	hip_flexion_r	hip_adduction_r	hip_rotation_r	knee_angle_r	knee_angle_r_beta	ankle_angle_r	subtalar_angle_r	mtp_angle_r	crank_angle_r	hip_flexion_l	hip_adduction_l	hip_rotation_l	knee_angle_l	knee_angle_l_beta	ankle_angle_l	subtalar_angle_l	mtp_angle_l	crank_angle_l	lumbar_extension	lumbar_bending	lumbar_rotation	arm_flex_r	arm_add_r	arm_rot_r	elbow_flex_r	pro_sup_r	wrist_flex_r	wrist_dev_r	arm_flex_l	arm_add_l	arm_rot_l	elbow_flex_l	pro_sup_l	wrist_flex_l	wrist_dev_l
      0.00500000	    -23.28888977	     -4.44385580	     -4.55967012	      0.16126480	      1.11030920	     -0.21374720	      0.00000000	      0.50000000	      0.00000000	      0.25000000	     90.29038599	      1.34151934	      0.33357346	    106.23884427	      1.85421763	     26.51873790	     -4.16572168	      0.00000000	      0.00000000	     40.73740152	    -11.56650821	     -3.68004459	     24.28127513	      0.42378820	     -4.56552802	      3.13690461	      0.00000000	      0.00000000	    -44.22895897	      2.81244168	      6.78450971	     87.13372316	     -8.86272946	     46.89329817	     31.12874515	     43.23111283	      0.00000000	      0.00000000	     89.20392912	     -8.99840210	     51.52103722	     23.72519308	     35.75652965	      0.00000000	      0.00000000
      0.01000000	    -23.04888807	     -4.40037730	     -4.55761330	      0.16149367	      1.11075505	     -0.21380907	      0.00000000	      0.50000000	      0.00000000	      0.25000000	     90.01300479	      1.28175034	      0.39966726	    106.23644094	      1.85417568	     26.68626219	     -3.80547220	      0.00000000	      0.00000000	     40.41399074	    -11.52523432	     -3.79439497	     24.21211270	      0.42258109	     -4.53606606	      3.27860304	      0.00000000	      0.00000000	    -44.54688226	      2.71909076	      6.84355573	     86.96977674	     -8.97080332	     45.89468868	     31.68262721	     43.20530622	      0.00000000	      0.00000000	     89.18523351	     -8.85621749	     50.62423302	     24.02142146	     36.14945122	      0.00000000	      0.00000000
      0.01500000	    -23.29233839	     -4.48172825	     -4.54189020	      0.16127031	      1.11031223	     -0.21379394	      0.00000000	      0.50000000	      0.00000000	      0.25000000	     90.28817190	      1.29059137	      0.28409533	    106.19298562	      1.85341724	     26.48490686	     -4.18577765	      0.00000000	      0.00000000	     40.77467029	    -11.58535295	     -3.61416154	     24.36198062	      0.42519677	     -4.55726641	      3.10022017	      0.00000000	      0.00000000	    -44.22946550	      2.84652802	      6.82787552	     87.15985956	     -8.99038518	     47.09036023	     31.13579900	     43.42035904	      0.00000000	      0.00000000	     89.21467318	     -8.96919718	     51.55961121	     23.53760272	     36.70796593	      0.00000000	      0.00000000
      0.02000000	    -23.18120745	     -4.60267421	     -4.35241921	      0.16111981	      1.11048964	     -0.21419310	      0.00000000	      0.50000000	      0.00000000	      0.25000000	     90.15290390	      1.24538181	      0.17404217	    106.26912278	      1.85474609	     26.41208844	     -4.53755171	      0.00000000	      0.00000000	     41.04098619	    -11.71076125	     -3.42243141	     25.08555259	      0.43782549	     -4.01900913	      2.66570660	      0.00000000	      0.00000000	    -44.46188192	      3.24320914	      6.61627840	     87.42146393	     -8.34354013	     46.93725338	     30.68232517	     43.40776032	      0.00000000	      0.00000000	     89.17249399	    -10.19670609	     52.32405377	     24.82670576	     37.27037635	      0.00000000	      0.00000000
      0.02500000	    -22.76704667	     -4.05068074	     -4.64248077	      0.16264525	      1.11198690	     -0.21456216	      0.00000000	      0.50000000	      0.00000000	      0.25000000	     89.63347783	      1.39155775	      0.64492732	    106.22948725	      1.85405432	     26.48388200	     -4.68736051	      0.00000000	      0.00000000	     39.84568473	    -11.08452669	     -3.47237844	     24.02156558	      0.41925541	     -4.80446666	      2.55960797	      0.00000000	      0.00000000	    -44.94048787	      2.58757972	      6.49112092	     87.33009486	     -8.62552265	     47.12367831	     31.08809219	     42.97512118	      0.00000000	      0.00000000	     89.18886302	     -9.65913201	     52.42535821	     24.59555258	     35.77904723	      0.00000000	      0.00000000
      0.03000000	    -22.40796638	     -3.44316162	     -4.98091930	      0.16409480	      1.11331766	     -0.21479251	      0.00000000	      0.50000000	      0.00000000	      0.25000000	     89.20499954	      1.58413043	      1.29324513	    106.24955455	      1.85440456	     26.63983834	     -4.58758051	      0.00000000	      0.00000000	     38.80295405	    -10.50632667	     -3.53094416	     23.21282662	      0.40514025	     -5.12585222	      1.70564020	      0.00000000	      0.00000000	    -45.31484981	      1.84781206	      6.29088035	     87.35029794	     -8.03953236	     46.54222424	     30.50405026	     42.42446215	      0.00000000	      0.00000000	     89.15468830	     -9.86131480	     52.82712686	     24.96558150	     35.30511465	      0.00000000	      0.00000000
      0.03500000	    -22.43362331	     -3.44336520	     -4.94512355	      0.16402880	      1.11347204	     -0.21472571	      0.00000000	      0.50000000	      0.00000000	      0.25000000	     89.21450583	      1.53984674	      1.23333468	    106.22630059	      1.85399870	     26.62866668	     -4.57769489	      0.00000000	      0.00000000	     38.74366215	    -10.37605690	     -2.97719017	     23.03815609	      0.40209168	     -5.33485762	      1.10372862	      0.00000000	      0.00000000	    -45.32314746	      1.85847549	      6.27185614	     87.28315463	     -7.90997282	     46.04937512	     30.73247266	     42.48093958	      0.00000000	      0.00000000	     89.14773949	     -9.80252047	     52.31637253	     24.98496711	     35.44813829	      0.00000000	      0.00000000
      0.04000000	    -22.56473260	     -3.68931661	     -5.01579810	      0.16376578	      1.11323785	     -0.21417603	      0.00000000	      0.50000000	      0.00000000	      0.25000000	     89.32727012	      1.80433809	      0.96492094	    106.16913509	      1.85300097	     26.53765308	     -4.96774071	      0.00000000	      0.00000000	     38.98356910	    -10.68740639	     -2.81290562	     23.22364797	      0.40532912	     -5.24796749	      1.14468145	      0.00000000	      0.00000000	    -45.19281537	      1.97085516	      6.47468695	     87.22765639	     -7.70354926	     45.58227922	     30.64880212	     42.53222530	      0.00000000	      0.00000000	     89.14837493	     -9.58997710	     51.85422065	     24.60167033	     35.80746005	      0.00000000	      0.00000000
